<svg class="prefix__icon" viewBox="0 0 1024 1024" xmlns="http://www.w3.org/2000/svg" width="200" height="200"><path d="M938.667 308.907a42.667 42.667 0 00-12.374-30.294L745.387 97.707a42.667 42.667 0 00-30.294-12.374A42.667 42.667 0 00684.8 97.707L564.053 218.453 97.707 684.8a42.667 42.667 0 00-12.374 30.293V896A42.667 42.667 0 00128 938.667h180.907a42.667 42.667 0 0032.426-12.374L805.12 459.947l121.173-118.614a50.773 50.773 0 009.387-14.08 42.667 42.667 0 000-10.24 29.867 29.867 0 000-5.973zM291.413 853.333H170.667V732.587l423.68-423.68 120.746 120.746zm483.84-483.84L654.507 248.747l60.586-60.16 120.32 120.32z"/></svg>