<svg viewBox="0 0 1024 1024" xmlns="http://www.w3.org/2000/svg" width="200" height="200"><path d="M512 0C228.43 0 0 228.43 0 512s228.43 512 512 512 512-228.43 512-512S795.57 0 512 0zm0 945.23C271.754 945.23 78.77 752.247 78.77 512S271.753 78.77 512 78.77 945.23 271.753 945.23 512 752.247 945.23 512 945.23z"/><path d="M744.37 492.308L456.861 283.569c-11.816-7.877-27.57-11.815-39.385-3.938s-23.63 19.692-23.63 35.446v417.477c0 15.754 7.876 27.57 19.691 35.446 11.816 7.877 27.57 3.938 39.385-3.938l287.508-208.739c11.815-7.877 15.754-19.692 15.754-31.508 3.938-11.815-3.939-23.63-11.816-31.507z"/></svg>